<mxfile host="app.diagrams.net" modified="2024-04-12T07:27:23.393Z" agent="Mozilla/5.0 (Windows NT 10.0; Win64; x64) AppleWebKit/537.36 (KHTML, like Gecko) Chrome/121.0.0.0 Safari/537.36 Edg/121.0.0.0" etag="ybOXPuyYkHh8HCEoKhIG" version="24.2.2" type="github">
  <diagram name="第 1 页" id="aKP4vSBZijNV9WoqjYUs">
    <mxGraphModel dx="1042" dy="535" grid="1" gridSize="10" guides="1" tooltips="1" connect="1" arrows="1" fold="1" page="1" pageScale="1" pageWidth="827" pageHeight="1169" math="0" shadow="0">
      <root>
        <mxCell id="0" />
        <mxCell id="1" parent="0" />
        <mxCell id="CDus9VyTco_ZmJK8PsMG-10" style="edgeStyle=orthogonalEdgeStyle;rounded=0;orthogonalLoop=1;jettySize=auto;html=1;entryX=0.5;entryY=0;entryDx=0;entryDy=0;" edge="1" parent="1" source="CDus9VyTco_ZmJK8PsMG-1" target="CDus9VyTco_ZmJK8PsMG-3">
          <mxGeometry relative="1" as="geometry" />
        </mxCell>
        <mxCell id="CDus9VyTco_ZmJK8PsMG-1" value="检查服务挂载时统一交互对象的格式" style="rounded=1;whiteSpace=wrap;html=1;" vertex="1" parent="1">
          <mxGeometry x="330" y="130" width="120" height="60" as="geometry" />
        </mxCell>
        <mxCell id="CDus9VyTco_ZmJK8PsMG-9" style="edgeStyle=orthogonalEdgeStyle;rounded=0;orthogonalLoop=1;jettySize=auto;html=1;" edge="1" parent="1" source="CDus9VyTco_ZmJK8PsMG-2" target="CDus9VyTco_ZmJK8PsMG-1">
          <mxGeometry relative="1" as="geometry" />
        </mxCell>
        <mxCell id="CDus9VyTco_ZmJK8PsMG-2" value="挂载服务" style="rounded=1;whiteSpace=wrap;html=1;" vertex="1" parent="1">
          <mxGeometry x="330" y="40" width="120" height="60" as="geometry" />
        </mxCell>
        <mxCell id="CDus9VyTco_ZmJK8PsMG-11" style="edgeStyle=orthogonalEdgeStyle;rounded=0;orthogonalLoop=1;jettySize=auto;html=1;entryX=0.5;entryY=0;entryDx=0;entryDy=0;" edge="1" parent="1" source="CDus9VyTco_ZmJK8PsMG-3" target="CDus9VyTco_ZmJK8PsMG-4">
          <mxGeometry relative="1" as="geometry" />
        </mxCell>
        <mxCell id="CDus9VyTco_ZmJK8PsMG-3" value="获取并构造服务状态管理客户端" style="rounded=1;whiteSpace=wrap;html=1;" vertex="1" parent="1">
          <mxGeometry x="330" y="220" width="120" height="60" as="geometry" />
        </mxCell>
        <mxCell id="CDus9VyTco_ZmJK8PsMG-12" value="" style="edgeStyle=orthogonalEdgeStyle;rounded=0;orthogonalLoop=1;jettySize=auto;html=1;" edge="1" parent="1" source="CDus9VyTco_ZmJK8PsMG-4" target="CDus9VyTco_ZmJK8PsMG-5">
          <mxGeometry relative="1" as="geometry" />
        </mxCell>
        <mxCell id="CDus9VyTco_ZmJK8PsMG-4" value="构造服务实例挂载请求参数" style="rounded=1;whiteSpace=wrap;html=1;" vertex="1" parent="1">
          <mxGeometry x="330" y="310" width="120" height="60" as="geometry" />
        </mxCell>
        <mxCell id="CDus9VyTco_ZmJK8PsMG-13" style="edgeStyle=orthogonalEdgeStyle;rounded=0;orthogonalLoop=1;jettySize=auto;html=1;entryX=0.5;entryY=0;entryDx=0;entryDy=0;" edge="1" parent="1" source="CDus9VyTco_ZmJK8PsMG-5" target="CDus9VyTco_ZmJK8PsMG-6">
          <mxGeometry relative="1" as="geometry" />
        </mxCell>
        <mxCell id="CDus9VyTco_ZmJK8PsMG-5" value="发起服务实例挂载的调用" style="rounded=1;whiteSpace=wrap;html=1;" vertex="1" parent="1">
          <mxGeometry x="330" y="400" width="120" height="60" as="geometry" />
        </mxCell>
        <mxCell id="CDus9VyTco_ZmJK8PsMG-14" style="edgeStyle=orthogonalEdgeStyle;rounded=0;orthogonalLoop=1;jettySize=auto;html=1;entryX=0.5;entryY=0;entryDx=0;entryDy=0;" edge="1" parent="1" source="CDus9VyTco_ZmJK8PsMG-6" target="CDus9VyTco_ZmJK8PsMG-7">
          <mxGeometry relative="1" as="geometry" />
        </mxCell>
        <mxCell id="CDus9VyTco_ZmJK8PsMG-6" value="服务实例进行服务挂载相关操作" style="rounded=1;whiteSpace=wrap;html=1;" vertex="1" parent="1">
          <mxGeometry x="330" y="490" width="120" height="60" as="geometry" />
        </mxCell>
        <mxCell id="CDus9VyTco_ZmJK8PsMG-15" style="edgeStyle=orthogonalEdgeStyle;rounded=0;orthogonalLoop=1;jettySize=auto;html=1;" edge="1" parent="1" source="CDus9VyTco_ZmJK8PsMG-7" target="CDus9VyTco_ZmJK8PsMG-8">
          <mxGeometry relative="1" as="geometry" />
        </mxCell>
        <mxCell id="CDus9VyTco_ZmJK8PsMG-7" value="获取返回结果" style="rounded=1;whiteSpace=wrap;html=1;" vertex="1" parent="1">
          <mxGeometry x="330" y="584.5" width="120" height="60" as="geometry" />
        </mxCell>
        <mxCell id="CDus9VyTco_ZmJK8PsMG-8" value="构造响应消息统一交互对象格式并返回" style="rounded=1;whiteSpace=wrap;html=1;" vertex="1" parent="1">
          <mxGeometry x="330" y="680" width="120" height="60" as="geometry" />
        </mxCell>
      </root>
    </mxGraphModel>
  </diagram>
</mxfile>
